<svg id="Layer_1" data-name="Layer 1" xmlns="http://www.w3.org/2000/svg" viewBox="0 0 900.33 1024"><defs><style>.cls-1{fill:#fff;}</style></defs><title>map-icon</title><path class="cls-1" d="M81.55,1024c-17.77-8.2-22.5-22.31-22.13-41.28C63,799,203.08,635.64,384,606c22.57-3.69,45.66-5.25,68.56-5.76,40.63-.89,81.34-1.46,121.93,0,154.17,5.68,267,78.81,340.91,212.89,29.06,52.76,41.71,110.41,44.24,170.53.79,18.73-4.86,32.27-22.1,40.29Z" transform="translate(-59.4 0)"/><path class="cls-1" d="M509.41,540c-148.9-.08-270.19-121.73-269.85-270.65C239.9,120.81,361.14-.08,509.7,0c149,.08,270.21,121.66,269.85,270.62C779.19,419.19,658,540.06,509.41,540Z" transform="translate(-59.4 0)"/></svg>