<svg id="Layer_1" data-name="Layer 1" xmlns="http://www.w3.org/2000/svg" viewBox="0 0 723.35 1022.95"><defs><style>.cls-1{fill:#fff;}</style></defs><title>search-icon</title><path class="cls-1" d="M523.37,1023c-30.45-36.12-60.39-72.69-91.44-108.27C333.55,802,252.14,678.74,198.67,538.34c-23.12-60.7-37.6-123.24-35.49-189C168.14,194.87,275.91,56.2,424.53,14c209.2-59.35,421.36,75.63,456.78,290.59,11.85,71.95,1.63,142-19.19,210.83-31.74,105-84.91,199-148.3,287.81-37.45,52.45-80.76,99.85-124.54,146.93-22,23.63-42.65,48.47-63.92,72.76Zm164.5-660c0-90.86-73-164.63-163-164.82-90.4-.19-163.7,73.83-163.58,165.2.12,90.9,73.09,164.16,163.46,164.11S687.89,453.91,687.87,363Z" transform="translate(-162.98 0)"/></svg>