<svg id="Layer_1" data-name="Layer 1" xmlns="http://www.w3.org/2000/svg" viewBox="0 0 567.75 386.37"><defs><style>.cls-1{fill:#5d5d5d;}</style></defs><title>services-icons</title><path class="cls-1" d="M69.55,36.29H425.2v67h88.39V298.35H449v64.88c-2.21-1.29-3.64-2.08-5-2.94q-48.31-29.85-96.65-59.64a14.61,14.61,0,0,0-7.23-2q-46.85-.19-93.7,0a14.8,14.8,0,0,0-7.22,2.11q-41.38,25.35-82.63,51c-1.31.81-2.68,1.52-4.65,2.64V275.8H69.55ZM95.9,62.52V250h82v57.63c1.76-1,3-1.62,4.2-2.35,13.52-8.35,27-16.79,40.59-25,2.8-1.69,3.89-3.48,3.88-6.84q-.18-82.21-.09-164.43v-5.75H399.05V62.52Zm156.89,210h5.54c29.65,0,59.29-.06,88.93.09a15.57,15.57,0,0,1,7.63,2.18c21.22,12.94,42.32,26.07,63.46,39.13,1.25.77,2.56,1.44,4.56,2.55v-44h64.53V129.58H252.79Z"/><path class="cls-1" d="M341.72,190.68v24.94H316.46V190.68Z"/><path class="cls-1" d="M423.67,215.72h-25V190.51h25Z"/><path class="cls-1" d="M357.6,215.67V190.54h25v25.13Z"/></svg>