<svg id="Layer_1" data-name="Layer 1" xmlns="http://www.w3.org/2000/svg" viewBox="0 0 567.75 386.37"><defs><style>.cls-1{fill:#5d5d5d;}</style></defs><title>services-icons</title><path class="cls-1" d="M216.49,36.29h87c0,18.78,0,37.57.09,56.36a33,33,0,0,0,1,8.47c3.25,12,12.76,19.11,25.56,19.15,21.14.06,42.28,0,63.41,0h3.56c.06,1.11.12,1.71.12,2.32,0,58.61.12,117.22,0,175.83-.09,29.45-22.57,51.55-52.05,51.6q-61.28.11-122.53,0c-29.35-.06-51.86-22.07-51.94-51.39q-.28-105.52,0-211.06c.09-21.66,10.66-37.51,30.32-46.77C205.83,38.55,211.32,37.75,216.49,36.29Zm66.32,129.44h37.37c8.27,0,16.55.08,24.82-.07a9.31,9.31,0,0,0,9.34-9.37,9.64,9.64,0,0,0-9.18-9.64c-.91-.07-1.83,0-2.75,0H223.55a29.06,29.06,0,0,0-3.37.08,9.68,9.68,0,0,0-8.55,8.65,9.37,9.37,0,0,0,6.61,9.87,19.1,19.1,0,0,0,5.14.49Q253.1,165.76,282.81,165.73Zm-.05,37.54h59.12a33.89,33.89,0,0,0,4.28-.2,9.41,9.41,0,0,0,7.61-12.54c-1.51-4.29-5-6.45-10.7-6.45q-60,0-120.08,0a17.24,17.24,0,0,0-4.54.51A9.42,9.42,0,0,0,212.21,197c1.58,4.19,4.95,6.26,10.51,6.26Q252.74,203.31,282.76,203.27Zm-30.1,37.53c9.59,0,19.18-.2,28.76.06,8.88.25,11.95-5.15,12-9.66.08-6-4.49-9.6-12-9.6q-28.92,0-57.83,0a26.16,26.16,0,0,0-4,.24,8.92,8.92,0,0,0-7.42,6.05c-2.47,6.5,2.26,12.79,9.83,12.87C232.26,240.88,242.46,240.8,252.66,240.8Z"/><path class="cls-1" d="M358.36,104.34c-5.92,0-11.84,0-17.76,0-11.14-.13-19-7.6-19.19-18.74-.22-10.4-.17-20.81,0-31.22.12-6.91,3.3-12.27,9.29-15.89a3,3,0,0,1,4,.24c19.63,15.8,39.34,31.5,58.95,47.31a4.15,4.15,0,0,1,1.16,3.27c-1.19,8.2-8.41,14.51-16.91,15l-.91,0H358.36Z"/></svg>