<svg id="Layer_1" data-name="Layer 1" xmlns="http://www.w3.org/2000/svg" viewBox="0 0 567.75 386.37"><defs><style>.cls-1{fill:#5d5d5d;}</style></defs><title>services-icons</title><path class="cls-1" d="M491.76,12.12V288.86h-5.91q-73.83,0-147.67-.09c-3.65,0-5.55,1.12-7.36,4.28-14.48,25.4-29.16,50.68-43.79,76-.91,1.56-1.87,3.09-3.15,5.2-1.15-1.83-2.1-3.26-2.95-4.74-14.63-25.31-29.31-50.6-43.8-76-1.95-3.42-4.06-4.77-8.13-4.76-48.89.16-97.78.11-146.67.11H76V12.12ZM461.85,42h-356v217h6.26c44.23,0,88.46.1,132.7-.14,5.21,0,7.9,1.66,10.38,6.13,9.17,16.53,18.8,32.81,28.52,49.64,1.15-1.85,2-3.22,2.86-4.64,9-15.53,18.06-31,26.83-46.65,1.9-3.38,4-4.45,7.83-4.43,44.89.14,89.79.09,134.69.09h5.91Z"/><path class="cls-1" d="M224.17,213.88c-2.48-1.14-3.14-3.11-3.08-5.76.49-25.62,20-48.4,45.26-52.53a69.52,69.52,0,0,1,9.56-.8c5.67-.12,11.34-.2,17,0,21.49.8,37.23,11,47.53,29.69,4.06,7.36,5.82,15.4,6.17,23.78.11,2.61-.67,4.5-3.08,5.62Z"/><path class="cls-1" d="M283.84,146.39a37.65,37.65,0,1,1,37.67-37.57A37.73,37.73,0,0,1,283.84,146.39Z"/></svg>