<svg id="Layer_1" data-name="Layer 1" xmlns="http://www.w3.org/2000/svg" viewBox="0 0 567.75 386.37"><defs><style>.cls-1{fill:#5d5d5d;}</style></defs><title>services-icons</title><path class="cls-1" d="M61.08,232.21c.57-4.73,1.16-9.46,1.7-14.19,1.79-15.66,8.35-27.91,24-33.64,5.17-1.88,10.4-3.6,15.59-5.4,8.05-2.78,15.93-6.31,24.19-8.16,9.26-2.08,18.84-2.93,28.34-3.78,10.52-.93,21.17-.76,31.63-2.08,5.27-.66,10.5-3.07,15.34-5.49,18.64-9.34,37-19.22,55.69-28.45,13.13-6.49,27.7-6.09,41.81-6.52,21.15-.66,42.33-.1,63.49-.23,3.58,0,7.14-1,10.73-1.28,3.13-.22,6.28,0,9.88,0-1,5.29,2,6.36,5.76,7.69,17,6.15,33.92,12.62,50.85,19a22,22,0,0,1,4.67,2.3c12.81,8.78,26.72,9.29,41.32,6,2.91-.65,6.1-.09,9.73-.09-1,3.83-5,7.92,2.34,7.55,0,7.06.15,13.72,0,20.36-.15,5.17,1.62,8.93,6.27,11.45a4.89,4.89,0,0,1,2.3,3.54c-.38,8.23-.69,16.49-1.83,24.64-.75,5.42-3.81,9.34-10,10.39-16,2.66-31.93,5.75-48.72,8.82,3.63-14.34,2.05-27.1-7.29-38.08s-21.53-15.5-35.74-13.42c-12.51,1.83-22,8.61-28.1,19.73-6,10.94-6.38,22.34-1.52,34.71l-209.64,1.48c7.41-20.92,3.6-38.48-15.12-50.56-14.74-9.51-32.25-7.57-45.3,3.29-11.73,9.76-18.41,27.43-9.75,48-8-1.25-15.79-1.24-22.37-4-3.22-1.36-5.94-4.77-10.17-4.86Z"/><path class="cls-1" d="M96.64,231.23a31.84,31.84,0,1,1,63.67.92c-.17,17.25-15,31.62-32.35,31.34A31.89,31.89,0,0,1,96.64,231.23Z"/><path class="cls-1" d="M409.66,199.77c18.14.51,31.66,14.95,31.14,33.26-.48,16.77-15.46,30.83-32.42,30.43C391,263,376.65,248.07,377.17,230.9A31.84,31.84,0,0,1,409.66,199.77Z"/></svg>