<svg id="Layer_1" data-name="Layer 1" xmlns="http://www.w3.org/2000/svg" viewBox="0 0 448.33 320.13"><defs><style>.cls-1{fill:#fff;}</style></defs><title>menu-icono</title><path class="cls-1" d="M224.56,128.07q95.51,0,191,0c19.08,0,33.43,14.75,32.75,33.4A32.19,32.19,0,0,1,418.2,192c-1.16.06-2.33.05-3.49.05q-190.5,0-381,0c-18.64,0-33-13.17-33.51-30.66a31.93,31.93,0,0,1,31.86-33.3c19.66-.17,39.33,0,59,0Z"/><path class="cls-1" d="M224.27,320.1q-95.75,0-191.49,0C19.2,320,9,313.79,3.26,301.47c-5.66-12.14-3.86-23.8,4.65-34.09,6.42-7.77,15-11.3,25.09-11.3q68.76,0,137.5,0,122.49,0,245,0c18.33,0,32.57,13.71,32.83,31.35a31.9,31.9,0,0,1-32.06,32.61c-34.5.12-69,0-103.49,0Z"/><path class="cls-1" d="M224.57.05q95.51,0,191,0C434.63.09,449,14.83,448.3,33.48A32.18,32.18,0,0,1,418.2,64c-1.16.06-2.33,0-3.5,0H34.24c-16.41,0-29.25-9.32-33-23.78A31.92,31.92,0,0,1,32.09.1c20.67-.19,41.33,0,62,0Z"/></svg>