<svg id="Layer_1" data-name="Layer 1" xmlns="http://www.w3.org/2000/svg" viewBox="0 0 2560 653"><defs><style>.cls-1{fill:#e01e5a;}.cls-2{fill:#ecb22e;}.cls-3{fill:#2eb67d;}.cls-4{fill:#36c5f0;}.cls-5{fill:#fff;}</style></defs><title>slack-logo</title><path class="cls-1" d="M308.94,495.19c0,28.12.1,56.24,0,84.37-.15,33.41-21.58,59.63-54.2,66.61-36.84,7.89-74.14-18-79.6-55.23a83.33,83.33,0,0,1-.9-11.91q-.09-83.62,0-167.24c0-34.81,23.23-62.81,57.72-67.68,44-6.22,76.17,27.76,76.85,63.21.57,29.28.12,58.58.12,87.87Z"/><path class="cls-1" d="M139.25,343.75c.13,1.84.32,3.15.32,4.45,0,20.63.21,41.27,0,61.9-.41,33.14-22.17,59.87-53.88,66.66C47,485,9,457.42,5,418.13c-4.13-40.34,25.71-74.06,66.29-74.6,21.16-.28,42.33-.07,63.49-.06C136.13,343.47,137.45,343.63,139.25,343.75Z"/><path class="cls-2" d="M495.64,343.38c28.12,0,56.24-.1,84.37,0,33.41.15,59.63,21.58,66.61,54.2,7.89,36.83-18,74.14-55.23,79.6a83.33,83.33,0,0,1-11.91.9q-83.62.09-167.24,0c-34.81,0-62.81-23.24-67.68-57.72-6.22-44,27.76-76.17,63.21-76.86,29.28-.56,58.58-.11,87.87-.11Z"/><path class="cls-2" d="M344.2,513.08c1.85-.14,3.15-.32,4.45-.32,20.63,0,41.27-.21,61.9,0,33.14.41,59.87,22.16,66.66,53.88,8.26,38.64-19.34,76.6-58.63,80.62-40.34,4.13-74.06-25.71-74.6-66.29-.28-21.16-.07-42.33-.06-63.5C343.92,516.2,344.08,514.88,344.2,513.08Z"/><path class="cls-3" d="M343.74,156.5c0-28.13-.1-56.25,0-84.37.15-33.42,21.58-59.64,54.2-66.62,36.84-7.89,74.14,18,79.6,55.24a83.19,83.19,0,0,1,.9,11.9q.09,83.63,0,167.24c0,34.81-23.23,62.81-57.72,67.68-44,6.23-76.17-27.76-76.85-63.21-.57-29.28-.12-58.58-.12-87.86Z"/><path class="cls-3" d="M513.44,307.93c-.13-1.84-.32-3.15-.32-4.45,0-20.63-.21-41.27,0-61.9.41-33.13,22.17-59.87,53.88-66.65,38.65-8.27,76.61,19.33,80.62,58.62,4.13,40.35-25.71,74.06-66.29,74.6-21.16.29-42.33.07-63.5.06C516.56,308.21,515.24,308.05,513.44,307.93Z"/><path class="cls-4" d="M157.05,308.3c-28.12,0-56.24.1-84.37,0-33.41-.15-59.63-21.58-66.62-54.2-7.88-36.83,18-74.13,55.24-79.59a83.34,83.34,0,0,1,11.91-.91q83.61-.07,167.24,0c34.81,0,62.81,23.24,67.68,57.72,6.22,44-27.76,76.17-63.21,76.86-29.28.56-58.58.11-87.87.11Z"/><path class="cls-4" d="M308.48,138.6c-1.84.14-3.14.32-4.44.32-20.63,0-41.27.21-61.9,0-33.14-.4-59.87-22.16-66.66-53.88-8.26-38.64,19.34-76.6,58.63-80.62,40.34-4.12,74.06,25.71,74.6,66.29.28,21.17.07,42.33.06,63.5C308.77,135.49,308.61,136.8,308.48,138.6Z"/><path class="cls-5" d="M2174.15,549.85V13.23H2284V328.45c9.13-10.88,17.33-20.63,25.51-30.39q48-57.21,96.06-114.35a9.85,9.85,0,0,1,6.49-3.4c42.17-.2,84.34-.15,126.5-.14,1,0,2,.12,4.23.27L2389.35,358.85,2555,549.92c-2.19.16-3.58.35-5,.35q-65.49,0-131,.08a8.57,8.57,0,0,1-7.51-3.61Q2349.86,470.39,2288,394.17c-1-1.27-2.13-2.47-3.8-4.42v160.1Z"/><path class="cls-5" d="M1613,222V180.61h109.77V549.55H1613.11v-41c-7,6.92-13.27,14.54-20.89,20.41-26.62,20.49-57.43,29.16-90.65,28.32-62.65-1.57-108.68-32.12-141-84.18-42.75-68.91-39.33-163.19,8-229,29.82-41.43,70-66.52,121.46-70.83,40-3.34,76.81,5.85,107.88,32.62C1603.35,210.49,1607.71,216.29,1613,222Zm.09,143.69c0-13.14-.19-26.28.11-39.42a17.85,17.85,0,0,0-4-11.89c-19.72-25.72-45.78-39.64-78.14-41-65.73-2.8-112.76,61.63-90.21,123.25a92.19,92.19,0,0,0,100,59.39c28.22-4.1,51.78-16.65,68.85-39.93a18.62,18.62,0,0,0,3.24-10C1613.27,392.68,1613.06,379.2,1613.06,365.72Z"/><path class="cls-5" d="M2130.35,271.28l-87.06,48.33c-31.91-55.31-105.2-60.1-145.39-20a92.12,92.12,0,0,0,4.64,135c41,35.59,108.29,29.16,140.57-24.25l87.06,48.3c-26.74,53.18-98,109.28-192.4,97.24-92.3-11.77-164-89.6-167.68-181.18-3.79-95.38,59.34-177.92,152-197.83C2015.77,156.76,2096.92,208.27,2130.35,271.28Z"/><path class="cls-5" d="M1089.44,289.78a254.71,254.71,0,0,0-56.85-26.72c-21.89-7-44.22-11.19-67.33-9.44-9.61.73-18.65,3.49-26.45,9.43-14.12,10.74-13.94,27.39.59,37.52,11.8,8.22,25.58,11.82,39.12,15.91,25.3,7.63,50.77,14.74,75.8,23.17a131.78,131.78,0,0,1,47.51,27.84c23.28,21.4,32.59,48.38,29.53,79.23C1126,501,1092.89,532.31,1043.41,549c-25.67,8.66-52.32,9.44-79.07,8-33.61-1.87-66.38-8-97.73-20.67A219.81,219.81,0,0,1,820,510.74c10.53-24.41,21-48.76,31.7-73.54,1.48.89,2.74,1.57,3.91,2.37,31.93,22.07,67.63,33,106.07,35.74,13.17.95,26.47,1.64,39.2-2.22,7.49-2.27,15.25-5.43,21.34-10.17,14.17-11,12.57-28.84-2.75-38.13-12.14-7.35-26-10-39.51-13.46-24.66-6.23-49.55-11.74-73.82-19.25-22.71-7-43-18.88-57.68-38.43-14.92-19.88-20-42.75-17.8-66.94,4.73-52.52,36-84.35,83.1-102.94,27.18-10.74,55.71-12.54,84.56-10.67,27.57,1.78,54.66,6.54,80,17.89,13.27,5.94,25.54,14.12,38.25,21.31,2.07,1.17,3.1,2.48,2,5.22-9.38,23.44-18.6,47-27.89,70.43A11.45,11.45,0,0,1,1089.44,289.78Z"/><path class="cls-5" d="M1176.44,13.13c1.2-.09,2-.21,2.84-.21h106.4V549.85H1176.44Z"/></svg>